<?xml version="1.0" encoding="UTF-8" standalone="no"?>
<!-- Generator: Adobe Illustrator 16.0.4, SVG Export Plug-In . SVG Version: 6.00 Build 0)  -->

<svg
   xmlns:dc="http://purl.org/dc/elements/1.1/"
   xmlns:cc="http://creativecommons.org/ns#"
   xmlns:rdf="http://www.w3.org/1999/02/22-rdf-syntax-ns#"
   xmlns:svg="http://www.w3.org/2000/svg"
   xmlns="http://www.w3.org/2000/svg"
   xmlns:sodipodi="http://sodipodi.sourceforge.net/DTD/sodipodi-0.dtd"
   xmlns:inkscape="http://www.inkscape.org/namespaces/inkscape"
   version="1.1"
   id="supported__x5F__white_x26_orange"
   x="0px"
   y="0px"
   width="1200"
   height="450"
   viewBox="0 0 1200 449.99999"
   enable-background="new 0 0 1190.551 841.89"
   xml:space="preserve"
   sodipodi:docname="logo.svg"
   inkscape:version="0.92.5 (2060ec1f9f, 2020-04-08)"><metadata
     id="metadata921"><rdf:RDF><cc:Work
         rdf:about=""><dc:format>image/svg+xml</dc:format><dc:type
           rdf:resource="http://purl.org/dc/dcmitype/StillImage" /><dc:title></dc:title></cc:Work></rdf:RDF></metadata><sodipodi:namedview
     id="namedview107"
     pagecolor="#ffffff"
     bordercolor="#666666"
     borderopacity="1.0"
     inkscape:pageshadow="2"
     inkscape:pageopacity="0.0"
     inkscape:pagecheckerboard="0"
     showgrid="false"
     inkscape:zoom="1.0143843"
     inkscape:cx="619.89822"
     inkscape:cy="294.31808"
     inkscape:window-width="2244"
     inkscape:window-height="1399"
     inkscape:window-x="0"
     inkscape:window-y="0"
     inkscape:window-maximized="1"
     inkscape:current-layer="g104" /><defs
     id="svg_document_defs" /><g
     id="g104"
     transform="translate(0,-391.89001)"><g
       id="g952"
       transform="translate(7.2963143,122.09922)"><g
         transform="matrix(1.9323668,0,0,1.9323668,-585.95407,-329.76391)"
         id="g99"><g
           transform="translate(0.507,1.333)"
           id="g536"><g
             id="g534"><g
               id="g518"><circle
                 style="fill:#e95420"
                 id="circle514"
                 r="35.625999"
                 cy="356.04199"
                 cx="871.461" /><path
                 style="fill:#ffffff"
                 inkscape:connector-curvature="0"
                 id="path516"
                 d="m 847.235,351.284 c -2.629,0 -4.758,2.129 -4.758,4.758 0,2.626 2.129,4.756 4.758,4.756 2.627,0 4.756,-2.129 4.756,-4.756 -10e-4,-2.629 -2.129,-4.758 -4.756,-4.758 z m 33.961,21.618 c -2.274,1.313 -3.055,4.222 -1.742,6.495 1.314,2.274 4.222,3.055 6.496,1.74 2.275,-1.312 3.056,-4.22 1.742,-6.495 -1.312,-2.273 -4.222,-3.053 -6.496,-1.74 z m -23.629,-16.86 c 0,-4.7 2.334,-8.854 5.906,-11.368 l -3.478,-5.825 c -4.161,2.782 -7.258,7.033 -8.543,12.012 1.5,1.225 2.461,3.09 2.461,5.181 0,2.089 -0.961,3.954 -2.461,5.18 1.283,4.98 4.382,9.23 8.543,12.013 l 3.478,-5.826 c -3.572,-2.514 -5.906,-6.667 -5.906,-11.367 z m 13.893,-13.895 c 7.258,0 13.213,5.564 13.838,12.661 l 6.776,-0.1 c -0.332,-5.239 -2.621,-9.943 -6.139,-13.402 -1.809,0.685 -3.896,0.579 -5.703,-0.462 -1.809,-1.044 -2.943,-2.805 -3.254,-4.716 -1.758,-0.485 -3.605,-0.75 -5.52,-0.75 -3.289,0 -6.396,0.772 -9.156,2.139 l 3.305,5.923 c 1.779,-0.828 3.76,-1.293 5.853,-1.293 z m 0,27.788 c -2.093,0 -4.074,-0.465 -5.853,-1.292 l -3.305,5.923 c 2.76,1.367 5.867,2.14 9.156,2.14 1.914,0 3.762,-0.266 5.52,-0.752 0.311,-1.911 1.445,-3.67 3.254,-4.716 1.808,-1.042 3.896,-1.146 5.703,-0.462 3.518,-3.458 5.807,-8.162 6.139,-13.401 l -6.778,-0.1 c -0.623,7.096 -6.578,12.66 -13.836,12.66 z m 9.734,-30.757 c 2.275,1.314 5.185,0.536 6.496,-1.738 1.312,-2.275 0.535,-5.183 -1.74,-6.497 -2.274,-1.312 -5.182,-0.533 -6.496,1.742 -1.312,2.273 -0.533,5.181 1.74,6.493 z" /></g><g
               id="g532"><path
                 style="fill:#ffffff"
                 inkscape:connector-curvature="0"
                 id="path520"
                 d="m 383.062,449.521 c -3.621,0.906 -8.397,1.865 -14.335,2.885 -5.938,1.018 -12.809,1.525 -20.613,1.525 -6.784,0 -12.497,-0.99 -17.134,-2.967 -4.639,-1.979 -8.372,-4.779 -11.196,-8.398 -2.828,-3.619 -4.864,-7.891 -6.107,-12.811 -1.247,-4.92 -1.867,-10.375 -1.867,-16.37 V 363.85 h 15.777 v 46.144 c 0,10.746 1.697,18.436 5.09,23.071 3.392,4.639 9.103,6.957 17.134,6.957 1.696,0 3.448,-0.059 5.259,-0.172 1.809,-0.109 3.505,-0.254 5.09,-0.424 1.583,-0.17 3.024,-0.34 4.325,-0.508 1.299,-0.17 2.231,-0.365 2.8,-0.594 v -74.475 h 15.776 v 85.672 z" /><path
                 style="fill:#ffffff"
                 inkscape:connector-curvature="0"
                 id="path522"
                 d="m 421.57,367.751 c 1.921,-1.242 4.835,-2.544 8.737,-3.901 3.902,-1.356 8.396,-2.035 13.486,-2.035 6.333,0 11.96,1.131 16.88,3.392 4.919,2.264 9.075,5.429 12.468,9.501 3.394,4.071 5.964,8.935 7.72,14.589 1.752,5.656 2.629,11.875 2.629,18.66 0,7.126 -1.047,13.545 -3.139,19.256 -2.094,5.711 -5.063,10.545 -8.907,14.504 -3.846,3.961 -8.481,7.016 -13.911,9.162 -5.428,2.146 -11.536,3.223 -18.321,3.223 -7.354,0 -13.855,-0.508 -19.51,-1.525 -5.656,-1.02 -10.292,-2.035 -13.91,-3.055 V 323.134 l 15.776,-2.713 v 47.33 z m 0,70.575 c 1.583,0.453 3.817,0.875 6.701,1.27 2.884,0.398 6.473,0.598 10.772,0.598 8.481,0 15.268,-2.803 20.356,-8.398 5.089,-5.6 7.634,-13.543 7.634,-23.836 0,-4.521 -0.454,-8.763 -1.356,-12.724 -0.907,-3.957 -2.375,-7.378 -4.411,-10.263 -2.036,-2.884 -4.666,-5.146 -7.889,-6.787 -3.225,-1.638 -7.1,-2.459 -11.621,-2.459 -4.301,0 -8.258,0.737 -11.875,2.205 -3.621,1.473 -6.392,2.999 -8.312,4.581 z" /><path
                 style="fill:#ffffff"
                 inkscape:connector-curvature="0"
                 id="path524"
                 d="m 571.535,449.521 c -3.623,0.906 -8.397,1.865 -14.337,2.885 -5.938,1.018 -12.808,1.525 -20.61,1.525 -6.786,0 -12.499,-0.99 -17.136,-2.967 -4.639,-1.979 -8.372,-4.779 -11.196,-8.398 -2.828,-3.619 -4.863,-7.891 -6.106,-12.811 -1.247,-4.92 -1.867,-10.375 -1.867,-16.37 V 363.85 h 15.778 v 46.144 c 0,10.746 1.696,18.436 5.089,23.071 3.394,4.639 9.104,6.957 17.135,6.957 1.696,0 3.449,-0.059 5.26,-0.172 1.808,-0.109 3.505,-0.254 5.089,-0.424 1.583,-0.17 3.024,-0.34 4.327,-0.508 1.298,-0.17 2.23,-0.365 2.798,-0.594 v -74.475 h 15.778 z" /><path
                 style="fill:#ffffff"
                 inkscape:connector-curvature="0"
                 id="path526"
                 d="m 594.265,366.395 c 3.62,-0.904 8.425,-1.866 14.421,-2.885 5.993,-1.017 12.892,-1.525 20.696,-1.525 7.012,0 12.834,0.99 17.473,2.968 4.637,1.979 8.34,4.75 11.111,8.312 2.771,3.563 4.721,7.834 5.854,12.81 1.129,4.978 1.697,10.462 1.697,16.456 v 49.536 H 649.74 v -46.145 c 0,-5.427 -0.368,-10.062 -1.104,-13.909 -0.736,-3.843 -1.949,-6.956 -3.646,-9.33 -1.696,-2.376 -3.959,-4.1 -6.784,-5.175 -2.83,-1.074 -6.336,-1.611 -10.519,-1.611 -1.697,0 -3.453,0.059 -5.26,0.17 -1.812,0.113 -3.535,0.256 -5.174,0.426 -1.642,0.168 -3.113,0.368 -4.41,0.593 -1.303,0.228 -2.236,0.397 -2.8,0.508 v 74.474 h -15.778 z" /><path
                 style="fill:#ffffff"
                 inkscape:connector-curvature="0"
                 id="path528"
                 d="m 701.989,363.851 h 33.42 v 13.232 h -33.42 v 40.714 c 0,4.412 0.338,8.058 1.019,10.941 0.678,2.887 1.694,5.146 3.053,6.787 1.356,1.641 3.053,2.801 5.09,3.477 2.035,0.68 4.41,1.021 7.125,1.021 4.861,0 8.709,-0.537 11.535,-1.613 2.824,-1.072 4.75,-1.836 5.768,-2.289 l 3.394,12.895 c -1.584,0.791 -4.385,1.811 -8.396,3.053 -4.016,1.242 -8.565,1.865 -13.658,1.865 -5.991,0 -10.938,-0.762 -14.842,-2.291 -3.901,-1.525 -7.041,-3.814 -9.414,-6.869 -2.377,-3.055 -4.047,-6.814 -5.006,-11.283 -0.963,-4.465 -1.442,-9.641 -1.442,-15.522 v -78.715 l 15.778,-2.714 v 27.312 h -0.004 z" /><path
                 style="fill:#ffffff"
                 inkscape:connector-curvature="0"
                 id="path530"
                 d="m 821.246,449.521 c -3.618,0.906 -8.397,1.865 -14.334,2.885 -5.938,1.018 -12.809,1.525 -20.612,1.525 -6.785,0 -12.498,-0.99 -17.133,-2.967 -4.642,-1.979 -8.371,-4.779 -11.197,-8.398 -2.828,-3.619 -4.863,-7.891 -6.107,-12.811 -1.246,-4.92 -1.867,-10.375 -1.867,-16.37 V 363.85 h 15.779 v 46.144 c 0,10.746 1.695,18.436 5.088,23.071 3.394,4.639 9.104,6.957 17.136,6.957 1.696,0 3.446,-0.059 5.26,-0.172 1.807,-0.109 3.504,-0.254 5.088,-0.424 1.584,-0.17 3.025,-0.34 4.326,-0.508 1.299,-0.17 2.231,-0.365 2.799,-0.594 v -74.475 h 15.777 v 85.672 z" /></g></g></g></g><g
         transform="matrix(1.9323668,0,0,1.9323668,-585.95407,-329.76391)"
         style="fill:#ffffff"
         id="g102"><g
           style="font-size:62px;font-family:Ubuntu;text-anchor:middle;fill:#ffffff;stroke-width:1px;text-rendering:geometricPrecision"
           id="text1"
           aria-label="Korea Community"><path
             inkscape:connector-curvature="0"
             id="path197"
             style="font-size:62px;font-family:Ubuntu;text-anchor:middle;fill:#ffffff;stroke-width:1px;text-rendering:geometricPrecision"
             d="m 351.68842,477.04328 q -1.922,2.108 -4.34,4.712 -2.418,2.542 -5.084,5.27 -2.604,2.666 -5.208,5.27 -2.604,2.604 -4.898,4.836 2.666,1.86 5.642,4.588 2.976,2.728 5.828,5.828 2.852,3.1 5.332,6.324 2.542,3.224 4.216,6.138 h -7.068 q -1.86,-2.914 -4.278,-5.828 -2.418,-2.976 -5.146,-5.642 -2.666,-2.728 -5.456,-5.022 -2.728,-2.294 -5.332,-3.906 v 20.398 h -6.014 v -42.966 h 6.014 v 18.972 q 2.17,-2.046 4.774,-4.588 2.604,-2.604 5.146,-5.208 2.542,-2.604 4.774,-4.96 2.294,-2.418 3.844,-4.216 z" /><path
             inkscape:connector-curvature="0"
             id="path199"
             style="font-size:62px;font-family:Ubuntu;text-anchor:middle;fill:#ffffff;stroke-width:1px;text-rendering:geometricPrecision"
             d="m 385.62857,503.88928 q 0,3.844 -1.116,6.944 -1.116,3.1 -3.162,5.332 -1.984,2.232 -4.774,3.472 -2.79,1.178 -6.076,1.178 -3.286,0 -6.076,-1.178 -2.79,-1.24 -4.836,-3.472 -1.984,-2.232 -3.1,-5.332 -1.116,-3.1 -1.116,-6.944 0,-3.782 1.116,-6.882 1.116,-3.162 3.1,-5.394 2.046,-2.232 4.836,-3.41 2.79,-1.24 6.076,-1.24 3.286,0 6.076,1.24 2.79,1.178 4.774,3.41 2.046,2.232 3.162,5.394 1.116,3.1 1.116,6.882 z m -6.014,0 q 0,-5.456 -2.48,-8.618 -2.418,-3.224 -6.634,-3.224 -4.216,0 -6.696,3.224 -2.418,3.162 -2.418,8.618 0,5.456 2.418,8.68 2.48,3.162 6.696,3.162 4.216,0 6.634,-3.162 2.48,-3.224 2.48,-8.68 z" /><path
             inkscape:connector-curvature="0"
             id="path201"
             style="font-size:62px;font-family:Ubuntu;text-anchor:middle;fill:#ffffff;stroke-width:1px;text-rendering:geometricPrecision"
             d="m 405.64488,487.08728 q 0.744,0 1.674,0.124 0.992,0.062 1.922,0.248 0.93,0.124 1.674,0.31 0.806,0.124 1.178,0.248 l -0.992,5.022 q -0.682,-0.248 -2.294,-0.558 -1.55,-0.372 -4.03,-0.372 -1.612,0 -3.224,0.372 -1.55,0.31 -2.046,0.434 v 27.094 h -5.766 v -30.876 q 2.046,-0.744 5.084,-1.364 3.038,-0.682 6.82,-0.682 z" /><path
             inkscape:connector-curvature="0"
             id="path203"
             style="font-size:62px;font-family:Ubuntu;text-anchor:middle;fill:#ffffff;stroke-width:1px;text-rendering:geometricPrecision"
             d="m 415.91945,503.95128 q 0,-4.278 1.24,-7.44 1.24,-3.224 3.286,-5.332 2.046,-2.108 4.712,-3.162 2.666,-1.054 5.456,-1.054 6.51,0 9.982,4.092 3.472,4.03 3.472,12.338 0,0.372 0,0.992 0,0.558 -0.062,1.054 h -22.072 q 0.372,5.022 2.914,7.626 2.542,2.604 7.936,2.604 3.038,0 5.084,-0.496 2.108,-0.558 3.162,-1.054 l 0.806,4.836 q -1.054,0.558 -3.72,1.178 -2.604,0.62 -5.952,0.62 -4.216,0 -7.316,-1.24 -3.038,-1.302 -5.022,-3.534 -1.984,-2.232 -2.976,-5.27 -0.93,-3.1 -0.93,-6.758 z m 22.134,-3.162 q 0.062,-3.906 -1.984,-6.386 -1.984,-2.542 -5.518,-2.542 -1.984,0 -3.534,0.806 -1.488,0.744 -2.542,1.984 -1.054,1.24 -1.674,2.852 -0.558,1.612 -0.744,3.286 z" /><path
             inkscape:connector-curvature="0"
             id="path205"
             style="font-size:62px;font-family:Ubuntu;text-anchor:middle;fill:#ffffff;stroke-width:1px;text-rendering:geometricPrecision"
             d="m 463.26226,515.85528 q 2.046,0 3.596,-0.062 1.612,-0.124 2.666,-0.372 v -9.61 q -0.62,-0.31 -2.046,-0.496 -1.364,-0.248 -3.348,-0.248 -1.302,0 -2.79,0.186 -1.426,0.186 -2.666,0.806 -1.178,0.558 -1.984,1.612 -0.806,0.992 -0.806,2.666 0,3.1 1.984,4.34 1.984,1.178 5.394,1.178 z m -0.496,-28.892 q 3.472,0 5.828,0.93 2.418,0.868 3.844,2.542 1.488,1.612 2.108,3.906 0.62,2.232 0.62,4.96 v 20.15 q -0.744,0.124 -2.108,0.372 -1.302,0.186 -2.976,0.372 -1.674,0.186 -3.658,0.31 -1.922,0.186 -3.844,0.186 -2.728,0 -5.022,-0.558 -2.294,-0.558 -3.968,-1.736 -1.674,-1.24 -2.604,-3.224 -0.93,-1.984 -0.93,-4.774 0,-2.666 1.054,-4.588 1.116,-1.922 2.976,-3.1 1.86,-1.178 4.34,-1.736 2.48,-0.558 5.208,-0.558 0.868,0 1.798,0.124 0.93,0.062 1.736,0.248 0.868,0.124 1.488,0.248 0.62,0.124 0.868,0.186 v -1.612 q 0,-1.426 -0.31,-2.79 -0.31,-1.426 -1.116,-2.48 -0.806,-1.116 -2.232,-1.736 -1.364,-0.682 -3.596,-0.682 -2.852,0 -5.022,0.434 -2.108,0.372 -3.162,0.806 l -0.682,-4.774 q 1.116,-0.496 3.72,-0.93 2.604,-0.496 5.642,-0.496 z" /><path
             inkscape:connector-curvature="0"
             id="path207"
             style="font-size:62px;font-family:Ubuntu;text-anchor:middle;fill:#ffffff;stroke-width:1px;text-rendering:geometricPrecision"
             d="m 517.81935,520.93928 q -4.526,0 -8.246,-1.488 -3.72,-1.488 -6.386,-4.34 -2.666,-2.852 -4.154,-7.006 -1.426,-4.216 -1.426,-9.61 0,-5.394 1.612,-9.548 1.674,-4.216 4.464,-7.068 2.79,-2.852 6.51,-4.34 3.72,-1.488 7.936,-1.488 2.666,0 4.774,0.372 2.17,0.372 3.72,0.868 1.612,0.496 2.604,0.992 0.992,0.496 1.364,0.744 l -1.736,4.96 q -0.558,-0.372 -1.612,-0.806 -1.054,-0.434 -2.418,-0.868 -1.302,-0.434 -2.914,-0.682 -1.55,-0.31 -3.162,-0.31 -3.41,0 -6.138,1.178 -2.728,1.178 -4.65,3.41 -1.922,2.232 -2.976,5.456 -0.992,3.162 -0.992,7.13 0,3.844 0.868,7.006 0.93,3.162 2.728,5.456 1.798,2.232 4.464,3.472 2.728,1.24 6.324,1.24 4.154,0 6.882,-0.868 2.728,-0.868 4.092,-1.55 l 1.55,4.96 q -0.434,0.31 -1.55,0.806 -1.116,0.434 -2.79,0.868 -1.674,0.434 -3.906,0.744 -2.232,0.31 -4.836,0.31 z" /><path
             inkscape:connector-curvature="0"
             id="path209"
             style="font-size:62px;font-family:Ubuntu;text-anchor:middle;fill:#ffffff;stroke-width:1px;text-rendering:geometricPrecision"
             d="m 564.84732,503.88928 q 0,3.844 -1.116,6.944 -1.116,3.1 -3.162,5.332 -1.984,2.232 -4.774,3.472 -2.79,1.178 -6.076,1.178 -3.286,0 -6.076,-1.178 -2.79,-1.24 -4.836,-3.472 -1.984,-2.232 -3.1,-5.332 -1.116,-3.1 -1.116,-6.944 0,-3.782 1.116,-6.882 1.116,-3.162 3.1,-5.394 2.046,-2.232 4.836,-3.41 2.79,-1.24 6.076,-1.24 3.286,0 6.076,1.24 2.79,1.178 4.774,3.41 2.046,2.232 3.162,5.394 1.116,3.1 1.116,6.882 z m -6.014,0 q 0,-5.456 -2.48,-8.618 -2.418,-3.224 -6.634,-3.224 -4.216,0 -6.696,3.224 -2.418,3.162 -2.418,8.618 0,5.456 2.418,8.68 2.48,3.162 6.696,3.162 4.216,0 6.634,-3.162 2.48,-3.224 2.48,-8.68 z" /><path
             inkscape:connector-curvature="0"
             id="path211"
             style="font-size:62px;font-family:Ubuntu;text-anchor:middle;fill:#ffffff;stroke-width:1px;text-rendering:geometricPrecision"
             d="m 572.95963,488.69928 q 1.984,-0.496 5.208,-1.054 3.286,-0.558 7.564,-0.558 3.1,0 5.208,0.868 2.108,0.806 3.534,2.418 0.434,-0.31 1.364,-0.868 0.93,-0.558 2.294,-1.054 1.364,-0.558 3.038,-0.93 1.674,-0.434 3.596,-0.434 3.72,0 6.076,1.116 2.356,1.054 3.658,3.038 1.364,1.984 1.798,4.712 0.496,2.728 0.496,5.952 v 18.104 h -5.766 v -16.864 q 0,-2.852 -0.31,-4.898 -0.248,-2.046 -1.054,-3.41 -0.744,-1.364 -2.108,-1.984 -1.302,-0.682 -3.41,-0.682 -2.914,0 -4.836,0.806 -1.86,0.744 -2.542,1.364 0.496,1.612 0.744,3.534 0.248,1.922 0.248,4.03 v 18.104 h -5.766 v -16.864 q 0,-2.852 -0.31,-4.898 -0.31,-2.046 -1.116,-3.41 -0.744,-1.364 -2.108,-1.984 -1.302,-0.682 -3.348,-0.682 -0.868,0 -1.86,0.062 -0.992,0.062 -1.922,0.186 -0.868,0.062 -1.612,0.186 -0.744,0.124 -0.992,0.186 v 27.218 h -5.766 z" /><path
             inkscape:connector-curvature="0"
             id="path213"
             style="font-size:62px;font-family:Ubuntu;text-anchor:middle;fill:#ffffff;stroke-width:1px;text-rendering:geometricPrecision"
             d="m 626.36198,488.69928 q 1.984,-0.496 5.208,-1.054 3.286,-0.558 7.564,-0.558 3.1,0 5.208,0.868 2.108,0.806 3.534,2.418 0.434,-0.31 1.364,-0.868 0.93,-0.558 2.294,-1.054 1.364,-0.558 3.038,-0.93 1.674,-0.434 3.596,-0.434 3.72,0 6.076,1.116 2.356,1.054 3.658,3.038 1.364,1.984 1.798,4.712 0.496,2.728 0.496,5.952 v 18.104 h -5.766 v -16.864 q 0,-2.852 -0.31,-4.898 -0.248,-2.046 -1.054,-3.41 -0.744,-1.364 -2.108,-1.984 -1.302,-0.682 -3.41,-0.682 -2.914,0 -4.836,0.806 -1.86,0.744 -2.542,1.364 0.496,1.612 0.744,3.534 0.248,1.922 0.248,4.03 v 18.104 h -5.766 v -16.864 q 0,-2.852 -0.31,-4.898 -0.31,-2.046 -1.116,-3.41 -0.744,-1.364 -2.108,-1.984 -1.302,-0.682 -3.348,-0.682 -0.868,0 -1.86,0.062 -0.992,0.062 -1.922,0.186 -0.868,0.062 -1.612,0.186 -0.744,0.124 -0.992,0.186 v 27.218 h -5.766 z" /><path
             inkscape:connector-curvature="0"
             id="path215"
             style="font-size:62px;font-family:Ubuntu;text-anchor:middle;fill:#ffffff;stroke-width:1px;text-rendering:geometricPrecision"
             d="m 705.43232,519.07928 q -1.984,0.496 -5.27,1.054 -3.224,0.558 -7.502,0.558 -3.72,0 -6.262,-1.054 -2.542,-1.116 -4.092,-3.1 -1.55,-1.984 -2.232,-4.65 -0.682,-2.728 -0.682,-6.014 v -18.104 h 5.766 v 16.864 q 0,5.89 1.86,8.432 1.86,2.542 6.262,2.542 0.93,0 1.922,-0.062 0.992,-0.062 1.86,-0.124 0.868,-0.124 1.55,-0.186 0.744,-0.124 1.054,-0.248 v -27.218 h 5.766 z" /><path
             inkscape:connector-curvature="0"
             id="path217"
             style="font-size:62px;font-family:Ubuntu;text-anchor:middle;fill:#ffffff;stroke-width:1px;text-rendering:geometricPrecision"
             d="m 715.36588,488.69928 q 1.984,-0.496 5.27,-1.054 3.286,-0.558 7.564,-0.558 3.844,0 6.386,1.116 2.542,1.054 4.03,3.038 1.55,1.922 2.17,4.65 0.62,2.728 0.62,6.014 v 18.104 h -5.766 v -16.864 q 0,-2.976 -0.434,-5.084 -0.372,-2.108 -1.302,-3.41 -0.93,-1.302 -2.48,-1.86 -1.55,-0.62 -3.844,-0.62 -0.93,0 -1.922,0.062 -0.992,0.062 -1.922,0.186 -0.868,0.062 -1.612,0.186 -0.682,0.124 -0.992,0.186 v 27.218 h -5.766 z" /><path
             inkscape:connector-curvature="0"
             id="path219"
             style="font-size:62px;font-family:Ubuntu;text-anchor:middle;fill:#ffffff;stroke-width:1px;text-rendering:geometricPrecision"
             d="m 756.73345,520.00928 h -5.766 v -32.24 h 5.766 z m -2.914,-38.068 q -1.55,0 -2.666,-0.992 -1.054,-1.054 -1.054,-2.79 0,-1.736 1.054,-2.728 1.116,-1.054 2.666,-1.054 1.55,0 2.604,1.054 1.116,0.992 1.116,2.728 0,1.736 -1.116,2.79 -1.054,0.992 -2.604,0.992 z" /><path
             inkscape:connector-curvature="0"
             id="path221"
             style="font-size:62px;font-family:Ubuntu;text-anchor:middle;fill:#ffffff;stroke-width:1px;text-rendering:geometricPrecision"
             d="m 772.10363,487.76928 h 12.214 v 4.836 h -12.214 v 14.88 q 0,2.418 0.372,4.03 0.372,1.55 1.116,2.48 0.744,0.868 1.86,1.24 1.116,0.372 2.604,0.372 2.604,0 4.154,-0.558 1.612,-0.62 2.232,-0.868 l 1.116,4.774 q -0.868,0.434 -3.038,1.054 -2.17,0.682 -4.96,0.682 -3.286,0 -5.456,-0.806 -2.108,-0.868 -3.41,-2.542 -1.302,-1.674 -1.86,-4.092 -0.496,-2.48 -0.496,-5.704 v -28.768 l 5.766,-0.992 z" /><path
             inkscape:connector-curvature="0"
             id="path223"
             style="font-size:62px;font-family:Ubuntu;text-anchor:middle;fill:#ffffff;stroke-width:1px;text-rendering:geometricPrecision"
             d="m 787.87295,526.02328 q 0.682,0.31 1.736,0.558 1.116,0.31 2.17,0.31 3.41,0 5.332,-1.55 1.922,-1.488 3.472,-4.898 -3.906,-7.44 -7.316,-15.748 -3.348,-8.37 -5.58,-16.926 h 6.2 q 0.682,2.79 1.612,6.014 0.992,3.224 2.17,6.634 1.178,3.41 2.542,6.82 1.364,3.41 2.852,6.572 2.356,-6.51 4.092,-12.896 1.736,-6.386 3.286,-13.144 h 5.952 q -2.232,9.114 -4.96,17.546 -2.728,8.37 -5.89,15.686 -1.24,2.79 -2.604,4.774 -1.302,2.046 -2.914,3.348 -1.612,1.302 -3.658,1.922 -1.984,0.62 -4.526,0.62 -0.682,0 -1.426,-0.124 -0.744,-0.062 -1.488,-0.248 -0.682,-0.124 -1.302,-0.31 -0.558,-0.186 -0.806,-0.31 z" /></g></g></g></g></svg>