<?xml version="1.0" encoding="UTF-8" standalone="no" ?>
<!DOCTYPE svg PUBLIC "-//W3C//DTD SVG 1.1//EN" "http://www.w3.org/Graphics/SVG/1.1/DTD/svg11.dtd">
<svg xmlns="http://www.w3.org/2000/svg" xmlns:xlink="http://www.w3.org/1999/xlink" version="1.1" width="500" height="500" viewBox="0 0 500 500" xml:space="preserve">
<desc>Created with Fabric.js 4.6.0</desc>
<defs>
</defs>
<g transform="matrix(2 0 0 2 391.71 98.13)" id="7tesBpoHzommtvOrjK0dJ"  >
<path style="stroke: none; stroke-width: 1; stroke-dasharray: none; stroke-linecap: butt; stroke-dashoffset: 0; stroke-linejoin: miter; stroke-miterlimit: 4; fill: none; fill-rule: nonzero; opacity: 1;" vector-effect="non-scaling-stroke"  transform=" translate(-12, -12)" d="M 0 0 L 24 0 L 24 24 L 0 24 L 0 0 z M 0 0 L 24 0 L 24 24 L 0 24 L 0 0 z" stroke-linecap="round" />
</g>
<g transform="matrix(2 0 0 2 11.59 279.39)" id="UDOXyVjwQdMqne125XIX1"  >
<path style="stroke: none; stroke-width: 1; stroke-dasharray: none; stroke-linecap: butt; stroke-dashoffset: 0; stroke-linejoin: miter; stroke-miterlimit: 4; fill: none; fill-rule: nonzero; opacity: 1;" vector-effect="non-scaling-stroke"  transform=" translate(-12, -12)" d="M 0 0 L 24 0 L 24 24 L 0 24 L 0 0 z M 0 0 L 24 0 L 24 24 L 0 24 L 0 0 z" stroke-linecap="round" />
</g>
<g transform="matrix(2 0 0 2 455.23 42.45)" id="wobKkoKs-r-W1W27t8wz5"  >
<path style="stroke: none; stroke-width: 1; stroke-dasharray: none; stroke-linecap: butt; stroke-dashoffset: 0; stroke-linejoin: miter; stroke-miterlimit: 4; fill: none; fill-rule: nonzero; opacity: 1;" vector-effect="non-scaling-stroke"  transform=" translate(-12, -12)" d="M 0 0 L 24 0 L 24 24 L 0 24 L 0 0 z" stroke-linecap="round" />
</g>
<g transform="matrix(2 0 0 2 388.15 191.21)" id="lxDihFOUsJjR_FY12j3o9"  >
<path style="stroke: none; stroke-width: 1; stroke-dasharray: none; stroke-linecap: butt; stroke-dashoffset: 0; stroke-linejoin: miter; stroke-miterlimit: 4; fill: none; fill-rule: nonzero; opacity: 1;" vector-effect="non-scaling-stroke"  transform=" translate(-12, -12)" d="M 0 0 L 24 0 L 24 24 L 0 24 L 0 0 z" stroke-linecap="round" />
</g>
<g transform="matrix(1 0 0 1 319.07 31.77)" id="g_XKFzeom79WO12j2iKO1"  >
<path style="stroke: none; stroke-width: 1; stroke-dasharray: none; stroke-linecap: butt; stroke-dashoffset: 0; stroke-linejoin: miter; stroke-miterlimit: 4; fill: none; fill-rule: nonzero; opacity: 1;" vector-effect="non-scaling-stroke"  transform=" translate(-12, -12)" d="M 0 24 L 0 0 L 24 0 L 24 24 z" stroke-linecap="round" />
</g>
<g transform="matrix(1.79 0 0 1.79 250 254.89)" id="l3DKX-lxG4a78LNor63YT"  >
<g style="" vector-effect="non-scaling-stroke"   >
		<g transform="matrix(2 0 0 2 -109.64 -64.13)" id="2vO9KIV3aJfTDB722c0Ji"  >
<path style="stroke: none; stroke-width: 1; stroke-dasharray: none; stroke-linecap: butt; stroke-dashoffset: 0; stroke-linejoin: miter; stroke-miterlimit: 4; fill: rgb(0,0,0); fill-rule: nonzero; opacity: 1;" vector-effect="non-scaling-stroke"  transform=" translate(-12, -12)" d="M 12 6 C 14.620000000000001 6 16.88 7.86 17.39 10.43 L 17.69 11.93 L 19.220000000000002 12.04 C 20.78 12.139999999999999 22.000000000000004 13.45 22.000000000000004 15 C 22.000000000000004 16.65 20.650000000000002 18 19.000000000000004 18 L 6 18 C 3.79 18 2 16.21 2 14 C 2 11.95 3.5300000000000002 10.24 5.5600000000000005 10.03 L 6.630000000000001 9.92 L 7.130000000000001 8.97 C 8.08 7.14 9.94 6 12 6 M 12 4 C 9.11 4 6.6 5.64 5.35 8.04 C 2.34 8.36 0 10.91 0 14 C 0 17.31 2.69 20 6 20 L 19 20 C 21.759999999999998 20 24 17.759999999999998 24 15 C 24 12.36 21.95 10.219999999999999 19.35 10.04 C 18.67 6.59 15.64 4 12 4 z" stroke-linecap="round" />
</g>
		<g transform="matrix(2 0 0 2 0 -117.36)" id="cINWE3AX3RBS2kny8VVyd"  >
<path style="stroke: none; stroke-width: 1; stroke-dasharray: none; stroke-linecap: butt; stroke-dashoffset: 0; stroke-linejoin: miter; stroke-miterlimit: 4; fill: rgb(0,0,0); fill-rule: nonzero; opacity: 1;" vector-effect="non-scaling-stroke"  transform=" translate(-12, -12)" d="M 20 18 C 21.1 18 22 17.1 22 16 L 22 6 C 22 4.9 21.1 4 20 4 L 4 4 C 2.9 4 2 4.9 2 6 L 2 16 C 2 17.1 2.9 18 4 18 L 0 18 L 0 20 L 24 20 L 24 18 L 20 18 z M 4 6 L 20 6 L 20 16 L 4 16 L 4 6 z" stroke-linecap="round" />
</g>
		<g transform="matrix(2 0 0 2 113.64 -66.13)" id="NuZcU2b63-30u2W0cKK7a"  >
<path style="stroke: none; stroke-width: 1; stroke-dasharray: none; stroke-linecap: butt; stroke-dashoffset: 0; stroke-linejoin: miter; stroke-miterlimit: 4; fill: rgb(0,0,0); fill-rule: nonzero; opacity: 1;" vector-effect="non-scaling-stroke"  transform=" translate(-12, -12)" d="M 16 4.2 C 17.5 4.2 19 4.8 20.2 5.9 L 21 5.1000000000000005 C 19.6 3.7 17.8 3 16 3 C 14.2 3 12.4 3.7 11 5.1 L 11.8 5.8999999999999995 C 13 4.8 14.5 4.2 16 4.2 z M 12.7 6.7 L 13.5 7.5 C 14.2 6.8 15.1 6.5 16 6.5 C 16.9 6.5 17.8 6.8 18.5 7.5 L 19.3 6.7 C 18.400000000000002 5.8 17.2 5.300000000000001 16 5.300000000000001 C 14.8 5.300000000000001 13.6 5.800000000000001 12.7 6.700000000000001 z M 19 13 L 17 13 L 17 9 L 15 9 L 15 13 L 5 13 C 3.9 13 3 13.9 3 15 L 3 19 C 3 20.1 3.9 21 5 21 L 19 21 C 20.1 21 21 20.1 21 19 L 21 15 C 21 13.9 20.1 13 19 13 z M 19 19 L 5 19 L 5 15 L 19 15 L 19 19 z M 6 16 L 8 16 L 8 18 L 6 18 z M 9.5 16 L 11.5 16 L 11.5 18 L 9.5 18 z M 13 16 L 15 16 L 15 18 L 13 18 z" stroke-linecap="round" />
</g>
		<g transform="matrix(0.54 0 0 0.54 0 -1.77)" id="NFMSePiPjYL9NXVdHldu2"  >
<g style="" vector-effect="non-scaling-stroke"   >
		<g transform="matrix(1 0 0 1 0 0)" id="P5FUjEQfq9l3tOyaGBBzl"  >
<path style="stroke: none; stroke-width: 1; stroke-dasharray: none; stroke-linecap: butt; stroke-dashoffset: 0; stroke-linejoin: miter; stroke-miterlimit: 4; fill: rgb(233,84,32); fill-rule: nonzero; opacity: 1;" vector-effect="non-scaling-stroke"  transform=" translate(-212.6, -212.6)" d="M 354.331 212.595 C 354.331 290.874 290.88100000000003 354.33000000000004 212.602 354.33000000000004 C 134.323 354.33000000000004 70.86699999999999 290.874 70.86699999999999 212.59500000000003 C 70.86699999999999 134.32100000000003 134.32399999999998 70.86700000000002 212.602 70.86700000000002 C 290.881 70.867 354.331 134.32 354.331 212.595 z" stroke-linecap="round" />
</g>
		<g transform="matrix(1 0 0 1 -15.93 0)" id="nKAVkPXJrQYT5knjBypgO"  >
<path style="stroke: none; stroke-width: 1; stroke-dasharray: none; stroke-linecap: butt; stroke-dashoffset: 0; stroke-linejoin: miter; stroke-miterlimit: 4; fill: rgb(255,255,255); fill-rule: nonzero; opacity: 1;" vector-effect="non-scaling-stroke"  transform=" translate(-196.67, -212.6)" d="M 139.043 212.595 C 139.043 222.659 130.88400000000001 230.82 120.813 230.82 C 110.754 230.82 102.595 222.66 102.595 212.595 C 102.595 202.535 110.754 194.376 120.813 194.376 C 130.884 194.376 139.043 202.535 139.043 212.595 z M 242.717 301.201 C 247.75 309.91 258.89 312.89700000000005 267.606 307.87100000000004 C 276.32099999999997 302.838 279.307 291.69200000000006 274.275 282.97600000000006 C 269.243 274.2610000000001 258.102 271.28100000000006 249.38699999999997 276.31300000000005 C 240.671 281.346 237.685 292.486 242.717 301.201 z M 274.274 142.219 C 279.306 133.50199999999998 276.326 122.359 267.605 117.332 C 258.89500000000004 112.3 247.75000000000003 115.28599999999999 242.716 123.999 C 237.684 132.714 240.67000000000002 143.856 249.386 148.888 C 258.102 153.92 269.248 150.934 274.274 142.219 z M 212.602 160.632 C 239.755 160.632 262.036 181.446 264.363 207.996 L 290.735 207.58 C 289.483 187.853 280.926 170.11100000000002 267.74 157.029 C 260.76 159.722 252.661 159.356 245.674 155.319 C 238.68200000000002 151.28199999999998 234.315 144.44799999999998 233.16 137.04399999999998 C 226.606 135.26399999999998 219.712 134.31099999999998 212.602 134.31099999999998 C 200.131 134.31099999999998 188.34300000000002 137.22699999999998 177.875 142.414 L 190.707 165.457 C 197.357 162.367 204.784 160.632 212.602 160.632 z M 160.633 212.595 C 160.633 195.018 169.36700000000002 179.474 182.73000000000002 170.075 L 169.19000000000003 147.44099999999997 C 153.50600000000003 157.91499999999996 141.82300000000004 173.89199999999997 136.89400000000003 192.62399999999997 C 142.72700000000003 197.32099999999997 146.46400000000003 204.52099999999996 146.46400000000003 212.59599999999998 C 146.46400000000003 220.676 142.72600000000003 227.87599999999998 136.89400000000003 232.57399999999998 C 141.82300000000004 251.30499999999998 153.50600000000003 267.282 169.19000000000003 277.762 L 182.73000000000002 255.128 C 169.367 245.722 160.633 230.184 160.633 212.595 z M 212.602 264.568 C 204.785 264.568 197.358 262.834 190.707 259.738 L 177.875 282.781 C 188.343 287.972 200.13 290.885 212.602 290.885 C 219.711 290.885 226.606 289.93899999999996 233.16 288.156 C 234.314 280.747 238.68099999999998 273.913 245.674 269.883 C 252.661 265.846 260.76 265.479 267.74 268.17199999999997 C 280.927 255.08399999999997 289.483 237.34199999999998 290.735 217.61499999999995 L 264.363 217.20599999999996 C 262.035 243.749 239.755 264.568 212.602 264.568 z" stroke-linecap="round" />
</g>
</g>
</g>
		<g transform="matrix(2 0 0 2 0 115.36)" id="Lnp2Hgxy6PkEkAUCKqAil"  >
<path style="stroke: none; stroke-width: 1; stroke-dasharray: none; stroke-linecap: butt; stroke-dashoffset: 0; stroke-linejoin: miter; stroke-miterlimit: 4; fill: rgb(0,0,0); fill-rule: nonzero; opacity: 1;" vector-effect="non-scaling-stroke"  transform=" translate(-12, -12)" d="M 19 15 L 19 19 L 5 19 L 5 15 L 19 15 M 20 13 L 4 13 C 3.45 13 3 13.45 3 14 L 3 20 C 3 20.55 3.45 21 4 21 L 20 21 C 20.55 21 21 20.55 21 20 L 21 14 C 21 13.45 20.55 13 20 13 z M 7 18.5 C 6.18 18.5 5.5 17.83 5.5 17 C 5.5 16.17 6.18 15.5 7 15.5 C 7.82 15.5 8.5 16.17 8.5 17 C 8.5 17.83 7.83 18.5 7 18.5 z M 19 5 L 19 9 L 5 9 L 5 5 L 19 5 M 20 3 L 4 3 C 3.45 3 3 3.45 3 4 L 3 10 C 3 10.55 3.45 11 4 11 L 20 11 C 20.55 11 21 10.55 21 10 L 21 4 C 21 3.45 20.55 3 20 3 z M 7 8.5 C 6.18 8.5 5.5 7.83 5.5 7 C 5.5 6.17 6.18 5.5 7 5.5 C 7.82 5.5 8.5 6.18 8.5 7 C 8.5 7.82 7.83 8.5 7 8.5 z" stroke-linecap="round" />
</g>
		<g transform="matrix(1 0 0 1 113.64 58.78)" id="NWlLh_VEQAjQVk_thwcxS"  >
<g style="" vector-effect="non-scaling-stroke"   >
		<g transform="matrix(1 0 0 1 0 0)" id="VbDQ0ayXxGgj3cSuOUwi-"  >
<path style="stroke: none; stroke-width: 1; stroke-dasharray: none; stroke-linecap: butt; stroke-dashoffset: 0; stroke-linejoin: miter; stroke-miterlimit: 4; fill: none; fill-rule: nonzero; opacity: 1;" vector-effect="non-scaling-stroke"  transform=" translate(-12, -12)" d="M 0 24 L 0 0 L 24 0 L 24 24 z" stroke-linecap="round" />
</g>
		<g transform="matrix(1 0 0 1 2 0)" id="L_Umo44YimgzmdP7i3ite"  >
<path style="stroke: none; stroke-width: 1; stroke-dasharray: none; stroke-linecap: butt; stroke-dashoffset: 0; stroke-linejoin: miter; stroke-miterlimit: 4; fill: rgb(0,0,0); fill-rule: nonzero; opacity: 1;" vector-effect="non-scaling-stroke"  transform=" translate(-13, -12)" d="M 9.5 7.5 L 9.5 16.5 L 16.5 12 z" stroke-linecap="round" />
</g>
		<g transform="matrix(2 0 0 2 0 0)" id="Ia1kjWjJWf3NM3KIfWGWh"  >
<path style="stroke: none; stroke-width: 1; stroke-dasharray: none; stroke-linecap: butt; stroke-dashoffset: 0; stroke-linejoin: miter; stroke-miterlimit: 4; fill: rgb(0,0,0); fill-rule: nonzero; opacity: 1;" vector-effect="non-scaling-stroke"  transform=" translate(-12, -12)" d="M 20 4 L 4 4 C 2.9 4 2 4.9 2 6 L 2 18 C 2 19.1 2.9 20 4 20 L 20 20 C 21.1 20 22 19.1 22 18 L 22 6 C 22 4.9 21.1 4 20 4 z M 20 18.01 L 4 18.01 L 4 5.99 L 20 5.99 L 20 18.01 z" stroke-linecap="round" />
</g>
</g>
</g>
		<g transform="matrix(2 0 0 2 -109.64 56.78)" id="rOkRG-AbfwyO53id9l6uA"  >
<path style="stroke: none; stroke-width: 1; stroke-dasharray: none; stroke-linecap: butt; stroke-dashoffset: 0; stroke-linejoin: miter; stroke-miterlimit: 4; fill: rgb(0,0,0); fill-rule: nonzero; opacity: 1;" vector-effect="non-scaling-stroke"  transform=" translate(-12, -12)" d="M 22 9 L 22 7 L 20 7 L 20 5 C 20 3.9 19.1 3 18 3 L 4 3 C 2.9 3 2 3.9 2 5 L 2 19 C 2 20.1 2.9 21 4 21 L 18 21 C 19.1 21 20 20.1 20 19 L 20 17 L 22 17 L 22 15 L 20 15 L 20 13 L 22 13 L 22 11 L 20 11 L 20 9 L 22 9 z M 18 19 L 4 19 L 4 5 L 18 5 L 18 19 z M 6 13 L 11 13 L 11 17 L 6 17 L 6 13 z M 12 7 L 16 7 L 16 10 L 12 10 L 12 7 z M 6 7 L 11 7 L 11 12 L 6 12 L 6 7 z M 12 11 L 16 11 L 16 17 L 12 17 L 12 11 z" stroke-linecap="round" />
</g>
</g>
</g>
</svg>